<svg width="43" height="42" viewBox="0 0 43 42" fill="none" xmlns="http://www.w3.org/2000/svg">
<path d="M18.6872 6C14.4954 2 7.71349 2 3.53181 6C0.678138 8.72093 -0.442043 12.4698 0.156063 16C6.04082 14.2512 12.9342 11.4744 20 7.25581L18.6872 6Z" fill="#06038D"/>
<path d="M43 11.2915C42.4791 9.35258 41.4423 7.52346 39.8949 6C38.2146 7.11752 36.5242 8.32579 34.8235 9.62479C24.3947 17.6003 13.6851 22.0608 5.33495 24.3771L2 28.5415L7.07138 29C8.18984 28.8328 9.54833 28.4747 9.54833 28.4747C18.0364 26.2492 29.2057 21.7504 40.0736 13.4406C41.0542 12.6956 42.0296 11.9792 43 11.2915Z" fill="url(#paint0_linear_3270_8489)"/>
<path d="M3.88102 23C12.2269 20.7409 23.1617 16.2226 33.7993 7.92142C35.2046 6.8255 36.6099 5.79206 38 4.82111L37.8237 0L32.0818 1.11515L28.6165 4.08088C26.3248 5.86897 24.018 7.48401 21.7262 8.93563L21.7212 8.94044C14.3323 13.6222 7.10455 16.6359 1 18.4961C1.57419 20.1256 2.5211 21.6541 3.83569 22.9567L3.88102 23Z" fill="url(#paint1_linear_3270_8489)"/>
<path d="M17.3086 36.2412C22.176 36.4841 25.5002 34.8209 31.516 30.768C27.9663 37.2811 23.8372 42.936 19.8951 39.1024L17.3086 36.2412Z" fill="#06038D"/>
<path d="M42.9764 14C42.1726 14.5863 41.3687 15.192 40.5648 15.8219C30.0943 23.9718 19.3439 28.5072 11 30.8426L15.1923 35C21.3586 33.3671 28.9699 30.5083 36.861 25.7986L39.4506 23.2305C42.0097 20.7012 43.185 17.3143 42.9764 14Z" fill="#06038D"/>
<defs>
<linearGradient id="paint0_linear_3270_8489" x1="42.9307" y1="18.506" x2="1.91962" y2="18.5788" gradientUnits="userSpaceOnUse">
<stop stop-color="#06038D"/>
<stop offset="0.492058" stop-color="#06038D" stop-opacity="0.49"/>
<stop offset="1" stop-color="#06038D"/>
</linearGradient>
<linearGradient id="paint1_linear_3270_8489" x1="37.9374" y1="12.506" x2="0.927439" y2="12.5653" gradientUnits="userSpaceOnUse">
<stop stop-color="#06038D"/>
<stop offset="0.492058" stop-color="#06038D" stop-opacity="0.49"/>
<stop offset="1" stop-color="#06038D"/>
</linearGradient>
</defs>
</svg>
