<svg width="20" height="20" viewBox="0 0 20 20" fill="none" xmlns="http://www.w3.org/2000/svg">
<path d="M16 20C13.8082 19.9947 12.0267 18.2306 12 16.039V14H7.99996V16.02C7.98892 18.2265 6.19321 20.0073 3.98669 20C1.78017 19.9927 -0.00364795 18.1999 5.6023e-06 15.9934C0.0036704 13.7869 1.79343 12 3.99996 12H5.99996V8.00002H3.99996C1.79343 8 0.0036704 6.21318 5.6023e-06 4.00666C-0.00364795 1.80013 1.78017 0.00739107 3.98669 2.25059e-05C6.19321 -0.00730077 7.98892 1.77352 7.99996 3.98002V6.00002H12V4.00002C12 1.79088 13.7908 2.25059e-05 16 2.25059e-05C18.2091 2.25059e-05 20 1.79088 20 4.00002C20 6.20916 18.2091 8.00002 16 8.00002H14V12H16C18.2091 12 20 13.7909 20 16C20 18.2092 18.2091 20 16 20ZM14 14V16C14 17.1046 14.8954 18 16 18C17.1045 18 18 17.1046 18 16C18 14.8955 17.1045 14 16 14H14ZM3.99996 14C2.89539 14 1.99996 14.8955 1.99996 16C1.99996 17.1046 2.89539 18 3.99996 18C4.53211 18.0057 5.04412 17.7968 5.42043 17.4205C5.79674 17.0442 6.00563 16.5322 5.99996 16V14H3.99996ZM7.99996 8.00002V12H12V8.00002H7.99996ZM16 2.00002C15.4678 1.99435 14.9558 2.20324 14.5795 2.57955C14.2032 2.95586 13.9943 3.46787 14 4.00002V6.00002H16C16.5321 6.0057 17.0441 5.79681 17.4204 5.4205C17.7967 5.04419 18.0056 4.53218 18 4.00002C18.0056 3.46787 17.7967 2.95586 17.4204 2.57955C17.0441 2.20324 16.5321 1.99435 16 2.00002ZM3.99996 2.00002C3.4678 1.99435 2.95579 2.20324 2.57948 2.57955C2.20317 2.95586 1.99428 3.46787 1.99996 4.00002C1.99428 4.53218 2.20317 5.04419 2.57948 5.4205C2.95579 5.79681 3.4678 6.0057 3.99996 6.00002H5.99996V4.00002C6.00563 3.46787 5.79674 2.95586 5.42043 2.57955C5.04412 2.20324 4.53211 1.99435 3.99996 2.00002Z" fill="#232222"/>
</svg>
